# xmcd CD database file
#
# Track frame offsets:
#	150
#	36870
#	61053
#	83688
#	107658
#	133249
#	153991
#
# Disc length: 2262 seconds
#
# Revision: 0
# Processed by: cddbd v1.5.2PL0 Copyright (c) Steve Scherf et al.
# Submitted via: CDex 1.70beta2
#
DISCID=5108d407
DTITLE=Eddie Henderson - Mahal
DYEAR=1978
DGENRE=Jazz
TTITLE0=Butterfly
TTITLE1=Cyclops
TTITLE2=Emotions
TTITLE3=Prance On
TTITLE4=Amoroso
TTITLE5=Mahal
TTITLE6=Ecstasy
EXTD=YEAR: 1978
EXTT0=
EXTT1=
EXTT2=
EXTT3=
EXTT4=
EXTT5=
EXTT6=
PLAYORDER=
